<?xml version="1.0" standalone="no"?><!DOCTYPE svg PUBLIC "-//W3C//DTD SVG 1.1//EN" "http://www.w3.org/Graphics/SVG/1.1/DTD/svg11.dtd"><svg class="icon" height="512" viewBox="0 0 1026 1024" version="1.1" xmlns="http://www.w3.org/2000/svg"><path d="M792.379895 466.325567c6.896627-12.098536 10.34238-25.246671 10.34238-39.449523 0-20.797399-6.676467-37.898166-20.019161-51.3023-13.352934-13.399014-34.437053-20.101081-63.252357-20.101081l-123.05384 0 0 145.499876 110.591784 0c23.516114 0 41.907118-2.749435 55.162772-8.248304C775.402008 487.225367 785.483268 478.424104 792.379895 466.325567zM551.151565 1.394634C269.152755-19.285006 23.787474 192.554581 3.102714 474.558511c-20.67964 281.99369 191.159947 527.369212 473.158757 548.048851 281.99881 20.67964 527.364092-191.165067 548.053971-473.153637C1044.995082 267.444675 833.150375 22.079394 551.151565 1.394634zM345.768286 746.670621 292.991429 746.670621 142.356202 306.873718l55.690131 0 101.043003 319.497617c8.130544 25.60507 14.940131 49.602463 20.42364 72.00242 6.005748-24.002513 12.994535-47.999906 20.950999-72.00242l105.021235-319.497617 52.510618 0L345.768286 746.670621zM822.879675 746.670621l-51.4559-91.499342c-15.032291-26.398669-27.407307-46.602149-37.125048-60.600202-9.727981-13.992933-18.437084-23.797714-26.127309-29.398983-7.690225-5.596149-15.51357-9.492461-23.470034-11.699177-5.836789-1.392637-15.38557-2.099196-28.646344-2.099196l-59.668364 0 0 195.302019-51.45078 0L544.935897 306.873718l172.384944 0c34.652092 0 60.999561 3.952632 79.032166 11.847657 18.032605 7.900145 32.445377 21.852117 43.228076 41.850798 10.782699 20.003801 16.179168 42.101678 16.179168 66.298751 0 31.201219-8.929263 57.502608-26.782668 78.899046-17.863645 21.401558-45.445031 34.995132-82.749279 40.79608 13.614053 7.398386 23.961553 14.699491 31.032259 21.898197 15.032291 15.60061 29.260743 35.097532 42.700717 58.501006l67.629948 119.700247L822.879675 746.665501z" /></svg>